<svg width="41" height="60" viewBox="0 0 41 60" fill="none" xmlns="http://www.w3.org/2000/svg">
<path d="M35.9786 0C38.7401 0 40.9786 2.23858 40.9786 5V47.9287C40.9786 49.2548 40.4515 50.5272 39.5138 51.4648L32.4435 58.5352C31.5058 59.4728 30.2334 60 28.9073 60H5.97864C3.21721 60 0.978638 57.7614 0.978638 55V5C0.978638 2.23858 3.21721 0 5.97864 0H35.9786ZM7.97864 2C5.21721 2 2.97864 4.23858 2.97864 7V53C2.97864 55.7614 5.21721 58 7.97864 58H28.0792C28.3734 58 28.6646 57.9725 28.9503 57.9219V49.001C28.9504 48.4488 29.3981 48.001 29.9503 48.001H38.8956C38.9497 47.7059 38.9786 47.4048 38.9786 47.1006V7C38.9786 4.23858 36.7401 2 33.9786 2H7.97864ZM31.9532 50.001C31.3999 50.001 30.9517 50.4506 30.9532 51.0039L30.9718 57.0752C31.1989 56.914 31.4148 56.7347 31.6144 56.5352L37.5138 50.6357C37.7115 50.438 37.8898 50.2248 38.0499 50L31.9532 50.001ZM13.1974 46.0117C14.2061 46.114 14.9933 46.9653 14.9933 48.001V52.001L14.9825 52.2051C14.88 53.2135 14.0288 54.001 12.9933 54.001H8.99329L8.78918 53.9902C7.78073 53.8879 6.99353 53.0364 6.99329 52.001V48.001C6.99329 46.8965 7.8888 46.0011 8.99329 46.001H12.9933L13.1974 46.0117ZM8.99329 52.001H12.9933V48.001H8.99329V52.001ZM25.9786 49.001C26.5309 49.001 26.9786 49.4487 26.9786 50.001C26.9784 50.553 26.5308 51.001 25.9786 51.001H17.9786C17.4265 51.001 16.9789 50.553 16.9786 50.001C16.9786 49.4487 17.4264 49.001 17.9786 49.001H25.9786ZM13.1974 36.0098C14.2061 36.112 14.9933 36.9634 14.9933 37.999V41.999L14.9825 42.2031C14.88 43.2116 14.0288 43.999 12.9933 43.999H8.99329L8.78918 43.9883C7.78073 43.886 6.99353 43.0344 6.99329 41.999V37.999C6.99329 36.8945 7.8888 35.9991 8.99329 35.999H12.9933L13.1974 36.0098ZM8.99329 41.999H12.9933V37.999H8.99329V41.999ZM32.9786 38.999C33.5309 38.999 33.9786 39.4467 33.9786 39.999C33.9784 40.5511 33.5308 40.999 32.9786 40.999H17.9786C17.4265 40.999 16.9789 40.5511 16.9786 39.999C16.9786 39.4467 17.4264 38.999 17.9786 38.999H32.9786ZM13.1896 26.0107C14.1983 26.113 14.9855 26.9643 14.9855 28V32L14.9747 32.2041C14.8725 33.2128 14.0211 34 12.9855 34H8.98547L8.78137 33.9893C7.77278 33.8869 6.98547 33.0356 6.98547 32V28C6.98547 26.8955 7.88099 26.0001 8.98547 26H12.9855L13.1896 26.0107ZM8.98547 32H12.9855V28H8.98547V32ZM32.9786 29C33.5309 29 33.9786 29.4477 33.9786 30C33.9786 30.5523 33.5309 31 32.9786 31H17.9786C17.4264 31 16.9786 30.5523 16.9786 30C16.9786 29.4477 17.4264 29 17.9786 29H32.9786ZM13.1896 16.0273C14.1983 16.1296 14.9855 16.981 14.9855 18.0166V22.0166L14.9747 22.2207C14.8722 23.2291 14.021 24.0166 12.9855 24.0166H8.98547L8.78137 24.0059C7.77292 23.9036 6.98572 23.052 6.98547 22.0166V18.0166C6.98547 16.9121 7.88099 16.0167 8.98547 16.0166H12.9855L13.1896 16.0273ZM8.98547 22.0166H12.9855V18.0166H8.98547V22.0166ZM32.9786 19.001C33.5309 19.001 33.9786 19.4487 33.9786 20.001C33.9784 20.553 33.5308 21.001 32.9786 21.001H17.9786C17.4265 21.001 16.9789 20.553 16.9786 20.001C16.9786 19.4487 17.4264 19.001 17.9786 19.001H32.9786ZM15.7638 6.61621C16.1543 6.2257 16.7873 6.22569 17.1779 6.61621C17.5682 7.00675 17.5683 7.63982 17.1779 8.03027L11.5206 13.6875C11.1545 14.053 10.5753 14.0759 10.1827 13.7559L10.1066 13.6875L7.27844 10.8584C6.88809 10.4679 6.88814 9.83484 7.27844 9.44434C7.66894 9.05395 8.302 9.05396 8.6925 9.44434L10.8136 11.5654L15.7638 6.61621ZM32.9786 10C33.5309 10 33.9786 10.4477 33.9786 11C33.9786 11.5523 33.5309 12 32.9786 12H18.9786C18.4264 12 17.9786 11.5523 17.9786 11C17.9786 10.4477 18.4264 10 18.9786 10H32.9786Z" fill="#5528FF"/>
</svg>
