<svg width="80" height="60" viewBox="0 0 80 60" fill="none" xmlns="http://www.w3.org/2000/svg">
<path d="M75 0C77.7614 0 80 2.23858 80 5V45L79.9932 45.2568C79.8595 47.8989 77.6753 50 75 50H41V58H54C54.5523 58 55 58.4477 55 59C55 59.5523 54.5523 60 54 60H26C25.4477 60 25 59.5523 25 59C25 58.4477 25.4477 58 26 58H39V50H5C2.32472 50 0.140529 47.8989 0.00683594 45.2568L0 45V5C6.24178e-07 2.32472 2.10111 0.140529 4.74316 0.00683594L5 0H75ZM2 45C2 46.6569 3.34315 48 5 48H75C76.6569 48 78 46.6569 78 45V44H2V45ZM40 45C40.5523 45 41 45.4477 41 46C41 46.5523 40.5523 47 40 47C39.4477 47 39 46.5523 39 46C39 45.4477 39.4477 45 40 45ZM5 2C3.3949 2 2.08422 3.26055 2.00391 4.8457L2 5V42H78V5C78 3.34315 76.6569 2 75 2H5Z" fill="#5528FF"/>
</svg>
